<svg xmlns="http://www.w3.org/2000/svg" viewBox="0 0 64 64">
  <defs>
    <!-- Folder gradient -->
    <linearGradient id="folderGrad" x1="0" y1="0" x2="1" y2="1">
      <stop offset="0%" stop-color="#40A9FF"/>
      <stop offset="100%" stop-color="#0066FF"/>
    </linearGradient>
    <!-- Broom gradient -->
    <linearGradient id="broomGrad" x1="0" y1="0" x2="1" y2="1">
      <stop offset="0%" stop-color="#FFD76E"/>
      <stop offset="100%" stop-color="#FF9E3D"/>
    </linearGradient>
    <!-- Sparkle gradient -->
    <linearGradient id="sparkleGrad" x1="0" y1="0" x2="1" y2="1">
      <stop offset="0%" stop-color="#7CFF7C"/>
      <stop offset="100%" stop-color="#00FFD5"/>
    </linearGradient>
  </defs>

  <!-- Folder -->
  <path d="M8 20c0-2.2 1.8-4 4-4h12l4 4h28c2.2 0 4 1.8 4 4v24c0 2.2-1.8 4-4 4H12c-2.2 0-4-1.8-4-4V20z"
        fill="url(#folderGrad)" rx="6" ry="6"/>

  <!-- Sparkle -->
  <path d="M46 14l2 4 4 2-4 2-2 4-2-4-4-2 4-2z"
        fill="url(#sparkleGrad)" stroke="white" stroke-width="1"/>

  <!-- Broom handle -->
  <rect x="36" y="38" width="3" height="12" rx="1.5" fill="#804000" />
  <!-- Broom brush -->
  <path d="M34 50h7l-1 6h-5z" fill="url(#broomGrad)" />
</svg>
